#!OML:ASF F:\VICON\USERDATA\INSTALL\rory3\rory3.ASF
:FULLY-SPECIFIED
:DEGREES
447
root 0.665821 17.4317 18.6357 1.31543 -0.54784 -4.77646
lowerback 4.66436 2.61381 -0.685932
upperback -0.27972 3.5721 3.91198
thorax -3.19813 1.82911 4.16238
lowerneck -15.5989 -5.55124 -14.0351
upperneck 32.9493 -6.35608 7.36178
head 14.7583 -3.50272 4.38488
rclavicle -4.29872e-015 -1.55052e-014
rhumerus -28.1024 -10.371 -72.534
rradius 40.084
rwrist -16.3533
rhand -12.646 20.3017
rfingers 7.12502
rthumb 13.4344 -9.24504
lclavicle -4.29872e-015 -1.55052e-014
lhumerus -40.3233 11.2984 81.6552
lradius 25.8715
lwrist -12.3519
lhand 2.3409 31.305
lfingers 7.12502
lthumb 27.8306 59.2639
rfemur 11.0741 3.2651 27.869
rtibia 33.8877
rfoot -3.48634 -1.49627
rtoes 4.36865
lfemur -29.0199 -2.81228 -13.9993
ltibia 28.8299
lfoot -3.94171 -0.666464
ltoes -11.402
448
root 0.696872 17.4357 18.8529 1.25961 -0.328952 -3.77382
lowerback 4.69156 2.54471 -1.59458
upperback -0.402087 3.421 3.56125
thorax -3.35983 1.76972 4.31797
lowerneck -15.8058 -5.5849 -13.7357
upperneck 33.3638 -6.41087 7.13409
head 14.9828 -3.52442 4.23856
rclavicle 4.08006e-014 5.96354e-015
rhumerus -28.5299 -10.6368 -72.5925
rradius 39.6768
rwrist -16.2282
rhand -12.8495 20.2919
rfingers 7.12502
rthumb 13.2382 -9.26777
lclavicle 4.08006e-014 5.96354e-015
lhumerus -40.6208 11.9776 80.9052
lradius 25.5557
lwrist -12.8857
lhand 2.235 31.1061
lfingers 7.12502
lthumb 27.7293 59.0814
rfemur 10.1921 2.31924 26.3929
rtibia 36.2415
rfoot -0.956022 -1.22073
rtoes 3.39572
lfemur -28.6829 -2.61666 -15.4323
ltibia 29.4237
lfoot -3.25347 -1.50203
ltoes -9.98865
449
root 0.722408 17.4388 19.06 1.16312 -0.128031 -2.92851
lowerback 4.7627 2.47675 -2.36906
upperback -0.453751 3.27588 3.24811
thorax -3.46585 1.71065 4.43711
lowerneck -15.709 -5.52203 -13.5403
upperneck 33.5082 -6.3971 7.12023
head 15.0145 -3.50088 4.20812
rclavicle 3.63527e-014 2.62396e-014
rhumerus -28.9194 -11.3155 -72.609
rradius 39.3035
rwrist -15.7554
rhand -12.9259 20.3433
rfingers 7.12502
rthumb 13.1646 -9.22106
lclavicle 3.63527e-014 2.62396e-014
lhumerus -40.7502 12.4622 80.2382
lradius 25.1823
lwrist -13.1691
lhand 2.03301 31.0384
lfingers 7.12502
lthumb 27.5362 59.0445
rfemur 9.12379 1.48319 25.1091
rtibia 38.764
rfoot 2.41812 -1.12646
rtoes 5.75879
lfemur -28.3185 -2.17195 -16.7418
ltibia 30.0865
lfoot -2.99404 -2.36588
ltoes -8.14237
450
root 0.74913 17.4392 19.2668 0.9648 0.0744509 -2.30019
lowerback 4.73507 2.37897 -2.91234
upperback -0.342044 3.10551 3.04137
thorax -3.33562 1.62919 4.54642
lowerneck -15.7913 -5.49489 -13.6145
upperneck 33.6503 -6.37937 7.26363
head 15.1072 -3.48623 4.29114
rclavicle 4.04527e-014 -5.1684e-015
rhumerus -29.0119 -12.0096 -72.5876
rradius 38.7517
rwrist -15.2138
rhand -12.9047 20.3898
rfingers 7.12502
rthumb 13.185 -9.17325
lclavicle 4.04527e-014 -5.1684e-015
lhumerus -40.6903 13.0299 79.6895
lradius 24.9107
lwrist -13.3262
lhand 1.98778 31.4402
lfingers 7.12502
lthumb 27.4929 59.4532
rfemur 8.07833 0.567119 24.0055
rtibia 41.4038
rfoot 5.64568 -1.00569
rtoes 7.58658
lfemur -27.7856 -1.51301 -17.8509
ltibia 30.8208
lfoot -3.22201 -3.39463
ltoes -5.54288
451
root 0.766532 17.4399 19.4705 0.733335 0.28568 -1.63683
lowerback 4.74433 2.26928 -3.60866
upperback -0.190664 2.91241 2.87527
thorax -3.19085 1.53738 4.78631
lowerneck -16.0592 -5.51292 -13.6754
upperneck 33.7856 -6.37604 7.32364
head 15.239 -3.4836 4.33101
rclavicle -1.11319e-014 4.77083e-015
rhumerus -29.0174 -12.2336 -72.6565
rradius 38.188
rwrist -15.0632
rhand -13.0245 20.3188
rfingers 7.12502
rthumb 13.0696 -9.25169
lclavicle -1.11319e-014 4.77083e-015
lhumerus -40.6754 13.7527 79.1624
lradius 24.8123
lwrist -13.4692
lhand 1.72119 31.4769
lfingers 7.12502
lthumb 27.2379 59.5302
rfemur 6.98577 -0.334095 22.9476
rtibia 44.1024
rfoot 8.24729 -1.002
rtoes 9.36086
lfemur -27.2165 -0.765172 -18.919
ltibia 31.5997
lfoot -3.74617 -4.69653
ltoes -3.43905
452
root 0.780787 17.4372 19.6655 0.547198 0.487753 -1.22743
lowerback 4.80628 2.14712 -4.01356
upperback -0.0198292 2.7197 2.74614
thorax -3.03982 1.43928 4.89811
lowerneck -16.199 -5.47563 -13.7197
upperneck 33.6828 -6.31382 7.41655
head 15.2187 -3.44619 4.38526
rclavicle 1.08338e-014 9.93923e-015
rhumerus -29.0046 -12.3937 -72.8344
rradius 37.7775
rwrist -15.0103
rhand -13.2136 20.3473
rfingers 7.12502
rthumb 12.8873 -9.23483
lclavicle 1.08338e-014 9.93923e-015
lhumerus -40.6784 14.1115 78.7927
lradius 24.9769
lwrist -13.1666
lhand 1.30402 31.1461
lfingers 7.12502
lthumb 26.8388 59.2614
rfemur 5.75234 -1.16515 22.2121
rtibia 46.8022
rfoot 10.5539 -1.50604
rtoes 13.7375
lfemur -26.7027 -0.136096 -19.6211
ltibia 32.3015
lfoot -4.36006 -5.7816
ltoes -1.95035
453
root 0.80441 17.4317 19.8593 0.311555 0.647332 -0.937978
lowerback 5.06159 2.0253 -4.17601
upperback 0.0739647 2.53546 2.63186
thorax -3.06634 1.34706 4.87982
lowerneck -16.3398 -5.40814 -13.7579
upperneck 33.742 -6.19411 7.45092
head 15.2649 -3.39532 4.43052
rclavicle 2.06736e-014 -2.38542e-015
rhumerus -29.2676 -12.6172 -72.9411
rradius 37.5614
rwrist -14.8884
rhand -13.2056 20.3144
rfingers 7.12502
rthumb 12.895 -9.26726
lclavicle 2.06736e-014 -2.38542e-015
lhumerus -40.7755 14.2924 78.4533
lradius 25.105
lwrist -12.6416
lhand 1.37075 31.5702
lfingers 7.12502
lthumb 26.9026 59.6756
rfemur 4.55615 -1.97378 21.5262
rtibia 49.449
rfoot 12.9124 -2.48477
rtoes 18.1783
lfemur -26.0494 0.192906 -20.1625
ltibia 32.8282
lfoot -5.07376 -6.29243
ltoes -2.31209
454
root 0.835703 17.4286 20.0594 -0.0382876 0.765889 -0.313091
lowerback 5.48011 1.92197 -4.66255
upperback 0.0377487 2.34655 2.46494
thorax -3.33005 1.26621 4.98566
lowerneck -16.2464 -5.3205 -13.6917
upperneck 33.9074 -6.01341 7.19554
head 15.283 -3.3505 4.3486
rclavicle -5.7896e-015 -4.77083e-015
rhumerus -29.8276 -12.734 -72.9012
rradius 37.2898
rwrist -14.7639
rhand -13.0853 20.4574
rfingers 7.12502
rthumb 13.011 -9.11681
lclavicle -5.7896e-015 -4.77083e-015
lhumerus -41.1116 14.5818 78.0413
lradius 25.0771
lwrist -12.2103
lhand 1.94745 32.544
lfingers 7.12502
lthumb 27.4543 60.5632
rfemur 3.50775 -2.70732 20.4092
rtibia 52.0114
rfoot 15.6974 -3.87679
rtoes 22.1893
lfemur -25.0623 0.142971 -21.0301
ltibia 33.1818
lfoot -5.80465 -6.32315
ltoes -2.81062
455
root 0.869277 17.431 20.258 -0.435825 0.762917 0.306056
lowerback 5.76437 1.88706 -5.11297
upperback 0.0678445 2.25308 2.3163
thorax -3.45904 1.22833 5.08742
lowerneck -15.7943 -5.2289 -13.7245
upperneck 33.8055 -5.82222 6.90384
head 15.0941 -3.31761 4.26228
rclavicle -8.53532e-015 -1.94809e-014
rhumerus -30.3184 -12.8817 -72.7814
rradius 36.9012
rwrist -14.6469
rhand -13.0468 20.7957
rfingers 7.12502
rthumb 13.0481 -8.77623
lclavicle -8.53532e-015 -1.94809e-014
lhumerus -41.3921 14.8684 77.7052
lradius 25.0738
lwrist -11.8965
lhand 2.68703 33.1007
lfingers 7.12502
lthumb 28.1614 61.0056
rfemur 2.4753 -3.18897 19.3296
rtibia 54.513
rfoot 18.3785 -5.52912
rtoes 26.2731
lfemur -23.904 -0.0140846 -21.8514
ltibia 33.3721
lfoot -6.40774 -6.23011
ltoes -1.83106
456
root 0.899838 17.4364 20.449 -0.745237 0.693084 0.828361
lowerback 5.95795 1.88615 -5.47921
upperback 0.190586 2.21424 2.1936
thorax -3.44447 1.21022 5.16721
lowerneck -15.414 -5.12307 -13.9629
upperneck 33.4778 -5.65737 6.97684
head 14.8425 -3.26605 4.3556
rclavicle -2.09842e-014 7.15625e-015
rhumerus -30.6032 -13.0368 -72.7288
rradius 36.5983
rwrist -14.5168
rhand -13.063 20.8396
rfingers 7.12502
rthumb 13.0325 -8.73332
lclavicle -2.09842e-014 7.15625e-015
lhumerus -41.3079 15.2261 77.4271
lradius 24.8704
lwrist -11.7104
lhand 3.0019 33.1483
lfingers 7.12502
lthumb 28.4624 61.0032
rfemur 1.31311 -3.54072 18.4585
rtibia 56.9887
rfoot 20.5998 -7.19099
rtoes 28.9109
lfemur -22.8414 -0.124804 -22.5506
ltibia 33.4018
lfoot -6.94081 -6.18303
ltoes -0.769755
457
root 0.928325 17.4394 20.6262 -0.870827 0.68756 1.49749
lowerback 6.23684 1.85704 -6.01951
upperback 0.246106 2.11684 2.02745
thorax -3.54444 1.1705 5.30338
lowerneck -15.2804 -5.02545 -14.1617
upperneck 33.1829 -5.51025 7.12434
head 14.667 -3.20344 4.4691
rclavicle 7.25564e-015 -2.14687e-014
rhumerus -30.6841 -13.1094 -72.7692
rradius 36.2744
rwrist -14.474
rhand -13.0009 20.7387
rfingers 7.12502
rthumb 13.0923 -8.8304
lclavicle 7.25564e-015 -2.14687e-014
lhumerus -41.094 15.4524 77.2918
lradius 24.7371
lwrist -11.3016
lhand 2.78913 33.1491
lfingers 7.12502
lthumb 28.259 61.0379
rfemur -0.106731 -4.00163 17.4885
rtibia 59.4574
rfoot 22.2218 -8.9652
rtoes 29.7142
lfemur -21.9576 -0.253514 -23.4179
ltibia 33.3516
lfoot -7.47622 -6.00637
ltoes -1.0154
458
root 0.955543 17.4472 20.8002 -0.987291 0.574209 2.05597
lowerback 6.48222 1.87298 -6.42791
upperback 0.312168 2.08894 1.8828
thorax -3.61917 1.16248 5.3812
lowerneck -15.7567 -5.08561 -14.1192
upperneck 33.5156 -5.472 6.90255
head 14.9182 -3.21269 4.38262
rclavicle 1.59276e-014 6.36111e-015
rhumerus -30.6425 -13.1885 -72.7888
rradius 35.7662
rwrist -14.4671
rhand -12.8825 20.559
rfingers 7.12502
rthumb 13.2065 -9.00264
lclavicle 1.59276e-014 6.36111e-015
lhumerus -40.8323 15.5766 77.2191
lradius 24.6722
lwrist -11.0026
lhand 2.57615 33.0176
lfingers 7.12502
lthumb 28.0555 60.9398
rfemur -1.61608 -4.364 16.6976
rtibia 61.8567
rfoot 22.8525 -10.8403
rtoes 30.313
lfemur -21.099 -0.289717 -24.1466
ltibia 33.2625
lfoot -7.93031 -5.70504
ltoes -1.70833
459
root 0.979129 17.463 20.9864 -1.21892 0.2957 2.20573
lowerback 6.60533 1.8986 -6.49126
upperback 0.420996 2.11202 1.87253
thorax -3.5798 1.17037 5.40247
lowerneck -16.5035 -5.22126 -13.9605
upperneck 34.1378 -5.48993 6.50706
head 15.3723 -3.25942 4.19773
rclavicle -1.06101e-014 9.14409e-015
rhumerus -30.6376 -13.3934 -72.7412
rradius 35.0674
rwrist -14.0432
rhand -12.7289 20.321
rfingers 7.12502
rthumb 13.3545 -9.23103
lclavicle -1.06101e-014 9.14409e-015
lhumerus -40.5433 16.0748 76.8822
lradius 24.2555
lwrist -11.3117
lhand 2.48986 32.5345
lfingers 7.12502
lthumb 27.973 60.4703
rfemur -2.96214 -4.54479 16.4293
rtibia 64.0911
rfoot 22.1704 -12.3211
rtoes 31.8788
lfemur -20.1051 -0.133124 -24.3861
ltibia 33.1161
lfoot -8.42016 -5.48383
ltoes -1.27091
